<mxfile host="app.diagrams.net" modified="2021-05-21T06:37:10.584Z" agent="5.0 (Windows NT 10.0; Win64; x64) AppleWebKit/537.36 (KHTML, like Gecko) Chrome/90.0.4430.212 Safari/537.36" etag="OZf2aTz-52pTG4BsXfQm" version="14.6.10" type="github">
  <diagram id="cKFTxJ9b0Luu36Hw3wjU" name="Page-1">
    <mxGraphModel dx="1342" dy="581" grid="1" gridSize="10" guides="1" tooltips="1" connect="1" arrows="1" fold="1" page="1" pageScale="1" pageWidth="827" pageHeight="1169" math="0" shadow="0">
      <root>
        <mxCell id="0" />
        <mxCell id="1" parent="0" />
        <mxCell id="dJ1FcX-7bumBZOfFay-a-1" value="Input&lt;br&gt;(300,1024)" style="rounded=1;whiteSpace=wrap;html=1;" vertex="1" parent="1">
          <mxGeometry x="490" y="40" width="120" height="60" as="geometry" />
        </mxCell>
        <mxCell id="dJ1FcX-7bumBZOfFay-a-7" value="" style="edgeStyle=orthogonalEdgeStyle;rounded=0;orthogonalLoop=1;jettySize=auto;html=1;" edge="1" parent="1" source="dJ1FcX-7bumBZOfFay-a-2" target="dJ1FcX-7bumBZOfFay-a-3">
          <mxGeometry relative="1" as="geometry" />
        </mxCell>
        <mxCell id="dJ1FcX-7bumBZOfFay-a-2" value="(300,32)" style="rounded=1;whiteSpace=wrap;html=1;" vertex="1" parent="1">
          <mxGeometry x="370" y="170" width="120" height="60" as="geometry" />
        </mxCell>
        <mxCell id="dJ1FcX-7bumBZOfFay-a-3" value="(300,32)" style="rounded=1;whiteSpace=wrap;html=1;" vertex="1" parent="1">
          <mxGeometry x="370" y="320" width="120" height="60" as="geometry" />
        </mxCell>
        <mxCell id="dJ1FcX-7bumBZOfFay-a-10" value="" style="edgeStyle=orthogonalEdgeStyle;rounded=0;orthogonalLoop=1;jettySize=auto;html=1;" edge="1" parent="1" source="dJ1FcX-7bumBZOfFay-a-4" target="dJ1FcX-7bumBZOfFay-a-9">
          <mxGeometry relative="1" as="geometry" />
        </mxCell>
        <mxCell id="dJ1FcX-7bumBZOfFay-a-4" value="&lt;span&gt;(300,32)&lt;/span&gt;" style="rounded=1;whiteSpace=wrap;html=1;" vertex="1" parent="1">
          <mxGeometry x="500" y="440" width="120" height="60" as="geometry" />
        </mxCell>
        <mxCell id="dJ1FcX-7bumBZOfFay-a-5" value="" style="endArrow=classic;html=1;rounded=0;edgeStyle=orthogonalEdgeStyle;exitX=0.5;exitY=1;exitDx=0;exitDy=0;entryX=0.5;entryY=0;entryDx=0;entryDy=0;" edge="1" parent="1" source="dJ1FcX-7bumBZOfFay-a-1" target="dJ1FcX-7bumBZOfFay-a-2">
          <mxGeometry width="50" height="50" relative="1" as="geometry">
            <mxPoint x="580" y="190" as="sourcePoint" />
            <mxPoint x="630" y="140" as="targetPoint" />
          </mxGeometry>
        </mxCell>
        <mxCell id="dJ1FcX-7bumBZOfFay-a-12" value="" style="edgeStyle=orthogonalEdgeStyle;rounded=0;orthogonalLoop=1;jettySize=auto;html=1;" edge="1" parent="1" source="dJ1FcX-7bumBZOfFay-a-9" target="dJ1FcX-7bumBZOfFay-a-11">
          <mxGeometry relative="1" as="geometry" />
        </mxCell>
        <mxCell id="dJ1FcX-7bumBZOfFay-a-9" value="&lt;span&gt;(300,1)&lt;/span&gt;" style="rounded=1;whiteSpace=wrap;html=1;" vertex="1" parent="1">
          <mxGeometry x="500" y="540" width="120" height="60" as="geometry" />
        </mxCell>
        <mxCell id="dJ1FcX-7bumBZOfFay-a-14" value="" style="edgeStyle=orthogonalEdgeStyle;rounded=0;orthogonalLoop=1;jettySize=auto;html=1;" edge="1" parent="1" source="dJ1FcX-7bumBZOfFay-a-11" target="dJ1FcX-7bumBZOfFay-a-13">
          <mxGeometry relative="1" as="geometry" />
        </mxCell>
        <mxCell id="dJ1FcX-7bumBZOfFay-a-11" value="&lt;span&gt;(300,1)&lt;/span&gt;" style="rounded=1;whiteSpace=wrap;html=1;" vertex="1" parent="1">
          <mxGeometry x="500" y="640" width="120" height="60" as="geometry" />
        </mxCell>
        <mxCell id="dJ1FcX-7bumBZOfFay-a-16" value="" style="edgeStyle=orthogonalEdgeStyle;rounded=0;orthogonalLoop=1;jettySize=auto;html=1;" edge="1" parent="1" source="dJ1FcX-7bumBZOfFay-a-13" target="dJ1FcX-7bumBZOfFay-a-15">
          <mxGeometry relative="1" as="geometry" />
        </mxCell>
        <mxCell id="dJ1FcX-7bumBZOfFay-a-13" value="&lt;span&gt;(300,1)&lt;/span&gt;" style="rounded=1;whiteSpace=wrap;html=1;" vertex="1" parent="1">
          <mxGeometry x="500" y="730" width="120" height="60" as="geometry" />
        </mxCell>
        <mxCell id="dJ1FcX-7bumBZOfFay-a-15" value="&lt;span&gt;(1024,1)&lt;/span&gt;" style="rounded=1;whiteSpace=wrap;html=1;" vertex="1" parent="1">
          <mxGeometry x="500" y="820" width="120" height="60" as="geometry" />
        </mxCell>
        <mxCell id="dJ1FcX-7bumBZOfFay-a-17" value="" style="ellipse;whiteSpace=wrap;html=1;aspect=fixed;" vertex="1" parent="1">
          <mxGeometry x="545" y="400" width="30" height="30" as="geometry" />
        </mxCell>
        <mxCell id="dJ1FcX-7bumBZOfFay-a-20" value="" style="endArrow=classic;html=1;rounded=0;edgeStyle=orthogonalEdgeStyle;exitX=0.5;exitY=1;exitDx=0;exitDy=0;entryX=0;entryY=0.5;entryDx=0;entryDy=0;" edge="1" parent="1" source="dJ1FcX-7bumBZOfFay-a-3" target="dJ1FcX-7bumBZOfFay-a-17">
          <mxGeometry width="50" height="50" relative="1" as="geometry">
            <mxPoint x="260" y="440" as="sourcePoint" />
            <mxPoint x="310" y="390" as="targetPoint" />
          </mxGeometry>
        </mxCell>
        <mxCell id="dJ1FcX-7bumBZOfFay-a-21" value="" style="endArrow=none;html=1;rounded=0;edgeStyle=orthogonalEdgeStyle;exitX=0;exitY=0;exitDx=0;exitDy=0;entryX=1;entryY=1;entryDx=0;entryDy=0;" edge="1" parent="1" source="dJ1FcX-7bumBZOfFay-a-17" target="dJ1FcX-7bumBZOfFay-a-17">
          <mxGeometry width="50" height="50" relative="1" as="geometry">
            <mxPoint x="260" y="440" as="sourcePoint" />
            <mxPoint x="310" y="390" as="targetPoint" />
          </mxGeometry>
        </mxCell>
        <mxCell id="dJ1FcX-7bumBZOfFay-a-23" value="" style="endArrow=none;html=1;rounded=0;edgeStyle=orthogonalEdgeStyle;exitX=0;exitY=1;exitDx=0;exitDy=0;entryX=1;entryY=0;entryDx=0;entryDy=0;" edge="1" parent="1" source="dJ1FcX-7bumBZOfFay-a-17" target="dJ1FcX-7bumBZOfFay-a-17">
          <mxGeometry width="50" height="50" relative="1" as="geometry">
            <mxPoint x="640" y="380" as="sourcePoint" />
            <mxPoint x="690" y="330" as="targetPoint" />
          </mxGeometry>
        </mxCell>
      </root>
    </mxGraphModel>
  </diagram>
</mxfile>
